<svg viewBox="0 0 1024 1024" version="1.1" xmlns="http://www.w3.org/2000/svg" width="25" height="25">
    <path d="M572.3112083 426.32035923a33.93143438 33.93143438 0 1 1 33.93149802 33.93149802 33.93143438 33.93143438 0 0 1-33.93149802-33.93149802z" fill="#f56c6c"></path>
    <path d="M467.13628224 749.90556741L467.13628157 557.58585167l-124.35393908 124.31909906a17.63582156 17.63582156 0 0 0-13.60709201-5.84280898 19.48600031 19.48600031 0 0 0-19.44990098 19.41331749 27.61348125 27.61348125 0 0 0 3.88214152 11.64816536 69.77956406 69.77956406 0 0 0 19.41418854-13.60796241 69.77956406 69.77956406 0 0 0-13.6079624 19.41418855 91.47789469 91.47789469 0 0 0-7.76515278 33.01953909l-6.6e-7 3.95443611a78.5241825 78.5241825 0 0 0 77.72556784 73.80771456 77.2172325 77.2172325 0 0 0 77.76127961-73.80684416z" fill="#f56c6c"></path>
    <path d="M350.36632258 695.511171a15.13155188 15.13155188 0 0 0-5.84280963-13.60709135 17.63582156 17.63582156 0 0 0-13.60709135-5.84280963 19.45027781 19.45027781 0 0 0-19.41331815 19.41331814 27.61348125 27.61348125 0 0 0 3.88301259 11.64903644c0 1.92321421 1.95805557 1.92321422 1.95892598 3.88214152 1.95979771 1.95979771 1.95979771 1.95979771 3.88301258 1.95979705a20.82867281 20.82867281 0 0 0 11.64816471 3.88214085 21.30045563 21.30045563 0 0 0 17.49010327-21.33653302z" fill="#f56c6c"></path>
    <path d="M350.36632258 695.511171a15.13155188 15.13155188 0 0 0-5.84280963-13.60709135 17.63582156 17.63582156 0 0 0-13.60709135-5.84280963 19.45027781 19.45027781 0 0 0-19.41331815 19.41331814 27.61348125 27.61348125 0 0 0 3.88301259 11.64903644c0 1.92321421 1.95805557 1.92321422 1.95892598 3.88214152 1.95979771 1.95979771 1.95979771 1.95979771 3.88301258 1.95979705a20.82867281 20.82867281 0 0 0 11.64816471 3.88214085 21.30045563 21.30045563 0 0 0 17.49010327-21.33653302z" fill="#f56c6c"></path>
    <path d="M831.16300038 455.7817772l-260.2506517 1e-8-0.00087106-265.56126714a107.4778725 107.4778725 0 0 1 214.65443936-1e-8l0.00087107 5.36113469a114.44252531 114.44252531 0 0 1-26.85793544 72.40362853 109.0804575 109.0804575 0 0 1 72.45414777-26.8074162l5.36113469 0.00087107a107.42613656 107.42613656 0 0 1 0 214.55340088l-5.36113469 0.04964817z" fill="#f56c6c"></path>
    <path d="M964.37522453 349.37609754a133.03176844 133.03176844 0 0 1-126.11688688 134.08324556L543.13548644 483.46108524 543.13374364 188.43578758A134.4348 134.4348 0 0 1 811.45266358 188.43491652l6.6e-7 26.80654513 26.85706372 0a133.03176844 133.03176844 0 0 1 126.06636764 134.13376482z m-367.57787072 80.67049014L835.60259439 430.04745875a80.67122719 80.67122719 0 0 0 0-160.94031061l-5.36113468-0.00087108a79.76831062 79.76831062 0 0 0-53.66360951 21.44628219l-37.57933439-37.53055729A93.69761625 93.69761625 0 0 0 760.44392626 193.9972571a80.67122719 80.67122719 0 0 0-160.99082986 0l6.6e-7 236.05020165-2.65574325-0.00087107z" fill="#f56c6c"></path>
    <path d="M830.29110789 570.04319534l-260.25065169 0L570.04219832 835.60533355A107.4778725 107.4778725 0 0 0 784.69663769 835.60533355l-0.00087106-5.36113468a114.44252531 114.44252531 0 0 0-26.85706439-72.40275746 109.03118531 109.03118531 0 0 0 72.45414778 26.80741619l5.36113469-0.00087107a107.42613656 107.42613656 0 0 0 0-214.55340088l-5.36200575-0.05051923z" fill="#f56c6c"></path>
    <path d="M964.37435412 677.31989579a134.88564188 134.88564188 0 0 1-126.11601581 134.08411663l-26.85706504 1e-8a89.790315 89.790315 0 0 1 6.6e-7 26.80654513 134.88564188 134.88564188 0 0 1-134.1328944 126.06723804 133.03176844 133.03176844 0 0 1-134.13376416-126.06810911L543.13374364 543.18700203 838.30798649 543.18613097a136.78878844 136.78878844 0 0 1 126.06810977 134.13376482z m-225.47600574 99.2598225l37.57933441-37.52881516A85.17965062 85.17965062 0 0 0 830.14042123 760.49457078l5.36113534 0.00087173a80.67122719 80.67122719 0 0 0-1e-8-160.9403106l-238.80524123-0.00087041-1e-8 236.15123947a80.67122719 80.67122719 0 0 0 160.99082919-0.00174147l1e-8-5.36026494a77.31331313 77.31331313 0 0 0-18.68949979-53.76377627l-0.10016742-0.00087107z" fill="#f56c6c"></path>
    <path d="M196.65113227 456.65366903L456.90178397 456.65366904 456.90265504 191.09065976a107.4778725 107.4778725 0 0 0-214.65443937 1e-8l0.00087107 5.36113467a114.39202125 114.39202125 0 0 0 26.85619396 72.4036292 109.0804575 109.0804575 0 0 0-72.45414777-26.8074162l-5.36026427-6.6e-7A107.42613656 107.42613656 0 0 0 191.28999759 456.60402086l5.36287681 0.04964817z" fill="#f56c6c"></path>
    <path d="M483.75884901 196.50231369l-0.00087173 287.00754866-295.17337046 0a134.384295 134.384295 0 0 1 0-268.21701039l26.85706371 0a89.83958813 89.83958813 0 0 1-0.0008704-26.8074162 134.4348 134.4348 0 0 1 268.31804888 0l-0.00087107 8.017749z m-53.81429684 225.52739605L429.94455218 183.32463526a80.67122719 80.67122719 0 0 0-160.98995813 0.00087172l-0.00087107 5.36113469a79.7190375 79.7190375 0 0 0 21.44628152 53.66361017l-40.08526139 37.57846268a85.17965062 85.17965062 0 0 0-53.66361018-21.44453939l-5.36113468-0.00087107a80.67122719 80.67122719 0 0 0-0.00087173 160.94118102L429.94542324 419.42448574l-0.00087107 2.605224z" fill="#f56c6c"></path>
    <path d="M964.37522453 349.37609754a133.03176844 133.03176844 0 0 1-126.11688688 134.08324556L543.13548644 483.46108524 543.13374364 188.43578758A134.4348 134.4348 0 0 1 811.45266358 188.43491652l6.6e-7 26.80654513 26.85706372 0a133.03176844 133.03176844 0 0 1 126.06636764 134.13376482z m-367.57787072 80.67049014L835.60259439 430.04745875a80.67122719 80.67122719 0 0 0 0-160.94031061l-5.36113468-0.00087108a79.76831062 79.76831062 0 0 0-53.66360951 21.44628219l-37.57933439-37.53055729A93.69761625 93.69761625 0 0 0 760.44392626 193.9972571a80.67122719 80.67122719 0 0 0-160.99082986 0l6.6e-7 236.05020165-2.65574325-0.00087107z" fill="#f56c6c"></path>
    <path d="M63.25076822 677.30595938a133.03176844 133.03176844 0 0 1 126.11775663-134.08411665L484.49050632 543.22097167 484.49224845 838.24626999A134.4348 134.4348 0 0 1 216.17419957 838.24626999l1e-8-26.8065458-26.85619398-0.00087107a133.03176844 133.03176844 0 0 1-126.06723738-134.13289374z m367.57787073-80.67049015L192.0233977 596.63459882a80.67122719 80.67122719 0 0 0-1e-8 160.94030929l5.36113468 0.00087107a79.76831062 79.76831062 0 0 0 53.66360952-21.44628086l37.58020547 37.52968622a93.69761625 93.69761625 0 0 0-21.4454098 59.02474419 80.67122719 80.67122719 0 0 0 160.98995747 0.00087107L428.17289568 596.63459816l2.65574327 0.00087107z" fill="#f56c6c"></path>
    <path d="M188.74487456 574.19361097l260.2506517 0 0.00087107 265.56126713a107.4778725 107.4778725 0 0 1-214.65443937 0l-0.00087107-5.36113468a114.44252531 114.44252531 0 0 1 26.85793545-72.40362853 109.0804575 109.0804575 0 0 1-72.45414778 26.8074162l-5.36113534-0.00087173a107.42613656 107.42613656 0 0 1 6.7e-7-214.55340021l5.36113467-0.04964818z" fill="#f56c6c"></path>
</svg>